g antenna_1_022
v 0 0 -0.106484
v 0.393239 0 -0.106484
v 0.279216 0.279216 -0.106484
v 0 0.37296 -0.106484
v -0.393239 0 -0.106484
v -0.279216 0.279216 -0.106484
v -0.279216 -0.279216 -0.106484
v 0 -0.37296 -0.106484
v 0.279216 -0.279216 -0.106484
v 0 0.37296 0.803117
v 0 0.096012 1.007293
v -0.071883 0.071883 1.007293
v -0.279216 0.279216 0.803117
v 0.393239 0 0.803117
v 0.101234 0 1.007293
v 0.071883 0.071883 1.007293
v 0.279216 0.279216 0.803117
v 0 -0.37296 0.803117
v -0.279216 -0.279216 0.803117
v -0.071883 -0.071883 1.007293
v 0 -0.096012 1.007293
v 0 -0.37296 0.803117
v 0 -0.096012 1.007293
v 0.071883 -0.071883 1.007293
v 0.279216 -0.279216 0.803117
v -0.393239 0 0.803117
v -0.279216 0.279216 0.803117
v -0.071883 0.071883 1.007293
v -0.101234 0 1.007293
v 0 0.37296 0.803117
v 0.279216 0.279216 0.803117
v 0.071883 0.071883 1.007293
v 0 0.096012 1.007293
v 0.393239 0 0.803117
v 0.279216 -0.279216 0.803117
v 0.071883 -0.071883 1.007293
v 0.101234 0 1.007293
v -0.393239 0 0.803117
v -0.101234 0 1.007293
v -0.071883 -0.071883 1.007293
v -0.279216 -0.279216 0.803117
v -0.393239 0 0.803117
v -0.393239 0 -0.106484
v -0.279216 0.279216 -0.106484
v -0.279216 0.279216 0.803117
v -0.393239 0 0.803117
v -0.279216 -0.279216 0.803117
v -0.279216 -0.279216 -0.106484
v -0.393239 0 -0.106484
v 0 -0.37296 -0.106484
v -0.279216 -0.279216 -0.106484
v -0.279216 -0.279216 0.803117
v 0 -0.37296 0.803117
v 0 -0.37296 0.803117
v 0.279216 -0.279216 0.803117
v 0.279216 -0.279216 -0.106484
v 0 -0.37296 -0.106484
v 0.393239 0 -0.106484
v 0.279216 -0.279216 -0.106484
v 0.279216 -0.279216 0.803117
v 0.393239 0 0.803117
v 0 0.37296 0.803117
v -0.279216 0.279216 0.803117
v -0.279216 0.279216 -0.106484
v 0 0.37296 -0.106484
v 0 0.37296 -0.106484
v 0.279216 0.279216 -0.106484
v 0.279216 0.279216 0.803117
v 0 0.37296 0.803117
v 0.393239 0 0.803117
v 0.279216 0.279216 0.803117
v 0.279216 0.279216 -0.106484
v 0.393239 0 -0.106484
v 0 -0.096012 1.007293
v -0.071883 -0.071883 1.007293
v -0.071883 -0.071883 7.518826
v 0 -0.096012 7.518826
v 0 -0.096012 1.007293
v 0 -0.096012 7.518826
v 0.071883 -0.071883 7.518826
v 0.071883 -0.071883 1.007293
v -0.101234 0 1.007293
v -0.071883 0.071883 1.007293
v -0.071883 0.071883 7.518826
v -0.101234 0 7.518826
v 0 0.096012 1.007293
v 0.071883 0.071883 1.007293
v 0.071883 0.071883 7.518826
v 0 0.096012 7.518826
v 0.101234 0 1.007293
v 0.071883 -0.071883 1.007293
v 0.071883 -0.071883 7.518826
v 0.101234 0 7.518826
v -0.101234 0 1.007293
v -0.101234 0 7.518826
v -0.071883 -0.071883 7.518826
v -0.071883 -0.071883 1.007293
v 0 0.096012 1.007293
v 0 0.096012 7.518826
v -0.071883 0.071883 7.518826
v -0.071883 0.071883 1.007293
v 0.101234 0 1.007293
v 0.101234 0 7.518826
v 0.071883 0.071883 7.518826
v 0.071883 0.071883 1.007293
v 0.071883 0.071883 7.518826
v 0.101234 0 7.518826
v 0.071883 -0.071883 7.518826
v 0 0.096012 7.518826
v 0 -0.096012 7.518826
v -0.071883 0.071883 7.518826
v -0.071883 -0.071883 7.518826
v -0.101234 0 7.518826
vt 0.098439 0.385886
vt 0.303105 0.385886
vt 0.243758 0.531207
vt 0.098439 0.579998
vt -0.106228 0.385886
vt -0.046881 0.531207
vt -0.046881 0.240564
vt 0.098439 0.191773
vt 0.243758 0.240564
vt 0.098439 0.579998
vt 0.098439 0.435859
vt 0.061027 0.423297
vt -0.046881 0.531207
vt 0.303105 0.385886
vt 0.15113 0.385886
vt 0.13585 0.423297
vt 0.243758 0.531207
vt 0.098439 0.191773
vt -0.046881 0.240564
vt 0.061027 0.348475
vt 0.098439 0.335913
vt 0.098439 0.191773
vt 0.098439 0.335913
vt 0.13585 0.348475
vt 0.243758 0.240564
vt -0.106228 0.385886
vt -0.046881 0.531207
vt 0.061027 0.423297
vt 0.045747 0.385886
vt 0.098439 0.579998
vt 0.243758 0.531207
vt 0.13585 0.423297
vt 0.098439 0.435859
vt 0.303105 0.385886
vt 0.243758 0.240564
vt 0.13585 0.348475
vt 0.15113 0.385886
vt -0.106228 0.385886
vt 0.045747 0.385886
vt 0.061027 0.348475
vt -0.046881 0.240564
vt 1.436527 -0.435575
vt 1.436527 -0.908993
vt 1.581849 -0.908993
vt 1.581849 -0.435575
vt 1.436527 -0.435575
vt 1.291206 -0.435575
vt 1.291206 -0.908993
vt 1.436527 -0.908993
vt 0.098439 -0.908993
vt -0.046881 -0.908993
vt -0.046881 -0.435575
vt 0.098439 -0.435575
vt 0.098439 -0.435575
vt 0.243758 -0.435575
vt 0.243758 -0.908993
vt 0.098439 -0.908993
vt 1.436527 -0.908993
vt 1.291206 -0.908993
vt 1.291206 -0.435575
vt 1.436527 -0.435575
vt 0.098439 -0.435575
vt -0.046881 -0.435575
vt -0.046881 -0.908993
vt 0.098439 -0.908993
vt 0.098439 -0.908993
vt 0.243758 -0.908993
vt 0.243758 -0.435575
vt 0.098439 -0.435575
vt 1.436527 -0.435575
vt 1.581849 -0.435575
vt 1.581849 -0.908993
vt 1.436527 -0.908993
vt 0.098439 -0.329306
vt 0.061027 -0.329306
vt 0.061027 3.059736
vt 0.098439 3.059736
vt 0.098439 -0.329306
vt 0.098439 3.059736
vt 0.13585 3.059736
vt 0.13585 -0.329306
vt 1.436527 -0.329306
vt 1.473939 -0.329306
vt 1.473939 3.059736
vt 1.436527 3.059736
vt 0.098439 -0.329306
vt 0.13585 -0.329306
vt 0.13585 3.059736
vt 0.098439 3.059736
vt 1.436527 -0.329306
vt 1.399116 -0.329306
vt 1.399116 3.059736
vt 1.436527 3.059736
vt 1.436527 -0.329306
vt 1.436527 3.059736
vt 1.399116 3.059736
vt 1.399116 -0.329306
vt 0.098439 -0.329306
vt 0.098439 3.059736
vt 0.061027 3.059736
vt 0.061027 -0.329306
vt 1.436527 -0.329306
vt 1.436527 3.059736
vt 1.473939 3.059736
vt 1.473939 -0.329306
vt 0.13585 0.423297
vt 0.15113 0.385886
vt 0.13585 0.348475
vt 0.098439 0.435859
vt 0.098439 0.335913
vt 0.061027 0.423297
vt 0.061027 0.348475
vt 0.045747 0.385886
vn 0 0 -1
vn 0 0 -1
vn 0 0 -1
vn 0 0 -1
vn 0 0 -1
vn 0 0 -1
vn 0 0 -1
vn 0 0 -1
vn 0 0 -1
vn -0.195397 0.5819811 0.7893782
vn -0.195397 0.5819811 0.7893782
vn -0.195397 0.5819811 0.7893782
vn -0.195397 0.5819811 0.7893782
vn 0.5579692 0.227864 0.7979652
vn 0.5579692 0.227864 0.7979652
vn 0.5579692 0.227864 0.7979652
vn 0.5579692 0.227864 0.7979652
vn -0.195397 -0.5819811 0.7893782
vn -0.195397 -0.5819811 0.7893782
vn -0.195397 -0.5819811 0.7893782
vn -0.195397 -0.5819811 0.7893782
vn 0.195397 -0.5819811 0.7893782
vn 0.195397 -0.5819811 0.7893782
vn 0.195397 -0.5819811 0.7893782
vn 0.195397 -0.5819811 0.7893782
vn -0.5579692 0.227864 0.7979652
vn -0.5579692 0.227864 0.7979652
vn -0.5579692 0.227864 0.7979652
vn -0.5579692 0.227864 0.7979652
vn 0.195397 0.5819811 0.7893782
vn 0.195397 0.5819811 0.7893782
vn 0.195397 0.5819811 0.7893782
vn 0.195397 0.5819811 0.7893782
vn 0.5579692 -0.227864 0.7979652
vn 0.5579692 -0.227864 0.7979652
vn 0.5579692 -0.227864 0.7979652
vn 0.5579692 -0.227864 0.7979652
vn -0.5579692 -0.227864 0.7979652
vn -0.5579692 -0.227864 0.7979652
vn -0.5579692 -0.227864 0.7979652
vn -0.5579692 -0.227864 0.7979652
vn -0.925777 0.37807 0
vn -0.925777 0.37807 0
vn -0.925777 0.37807 0
vn -0.925777 0.37807 0
vn -0.925777 -0.37807 0
vn -0.925777 -0.37807 0
vn -0.925777 -0.37807 0
vn -0.925777 -0.37807 0
vn -0.3182842 -0.9479954 0
vn -0.3182842 -0.9479954 0
vn -0.3182842 -0.9479954 0
vn -0.3182842 -0.9479954 0
vn 0.3182842 -0.9479954 0
vn 0.3182842 -0.9479954 0
vn 0.3182842 -0.9479954 0
vn 0.3182842 -0.9479954 0
vn 0.925777 -0.37807 0
vn 0.925777 -0.37807 0
vn 0.925777 -0.37807 0
vn 0.925777 -0.37807 0
vn -0.3182842 0.9479954 0
vn -0.3182842 0.9479954 0
vn -0.3182842 0.9479954 0
vn -0.3182842 0.9479954 0
vn 0.3182842 0.9479954 0
vn 0.3182842 0.9479954 0
vn 0.3182842 0.9479954 0
vn 0.3182842 0.9479954 0
vn 0.925777 0.37807 0
vn 0.925777 0.37807 0
vn 0.925777 0.37807 0
vn 0.925777 0.37807 0
vn -0.3182842 -0.9479954 0
vn -0.3182842 -0.9479954 0
vn -0.3182842 -0.9479954 0
vn -0.3182842 -0.9479954 0
vn 0.3182842 -0.9479954 0
vn 0.3182842 -0.9479954 0
vn 0.3182842 -0.9479954 0
vn 0.3182842 -0.9479954 0
vn -0.925777 0.37807 0
vn -0.925777 0.37807 0
vn -0.925777 0.37807 0
vn -0.925777 0.37807 0
vn 0.3182842 0.9479954 0
vn 0.3182842 0.9479954 0
vn 0.3182842 0.9479954 0
vn 0.3182842 0.9479954 0
vn 0.925777 -0.37807 0
vn 0.925777 -0.37807 0
vn 0.925777 -0.37807 0
vn 0.925777 -0.37807 0
vn -0.925777 -0.37807 0
vn -0.925777 -0.37807 0
vn -0.925777 -0.37807 0
vn -0.925777 -0.37807 0
vn -0.3182842 0.9479954 0
vn -0.3182842 0.9479954 0
vn -0.3182842 0.9479954 0
vn -0.3182842 0.9479954 0
vn 0.925777 0.37807 0
vn 0.925777 0.37807 0
vn 0.925777 0.37807 0
vn 0.925777 0.37807 0
vn 0 0 1
vn 0 0 1
vn 0 0 1
vn 0 0 1
vn 0 0 1
vn 0 0 1
vn 0 0 1
vn 0 0 1
g antenna_1_022_0
f 3/3/3 2/2/2 1/1/1
f 4/4/4 3/3/3 1/1/1
f 4/4/4 1/1/1 5/5/5
f 6/6/6 4/4/4 5/5/5
f 5/5/5 1/1/1 7/7/7
f 1/1/1 8/8/8 7/7/7
f 1/1/1 2/2/2 8/8/8
f 2/2/2 9/9/9 8/8/8
f 12/12/12 11/11/11 10/10/10
f 13/13/13 12/12/12 10/10/10
f 16/16/16 15/15/15 14/14/14
f 17/17/17 16/16/16 14/14/14
f 20/20/20 19/19/19 18/18/18
f 21/21/21 20/20/20 18/18/18
f 24/24/24 23/23/23 22/22/22
f 25/25/25 24/24/24 22/22/22
f 28/28/28 27/27/27 26/26/26
f 29/29/29 28/28/28 26/26/26
f 32/32/32 31/31/31 30/30/30
f 33/33/33 32/32/32 30/30/30
f 36/36/36 35/35/35 34/34/34
f 37/37/37 36/36/36 34/34/34
f 40/40/40 39/39/39 38/38/38
f 41/41/41 40/40/40 38/38/38
f 44/44/44 43/43/43 42/42/42
f 45/45/45 44/44/44 42/42/42
f 48/48/48 47/47/47 46/46/46
f 49/49/49 48/48/48 46/46/46
f 52/52/52 51/51/51 50/50/50
f 53/53/53 52/52/52 50/50/50
f 56/56/56 55/55/55 54/54/54
f 57/57/57 56/56/56 54/54/54
f 60/60/60 59/59/59 58/58/58
f 61/61/61 60/60/60 58/58/58
f 64/64/64 63/63/63 62/62/62
f 65/65/65 64/64/64 62/62/62
f 68/68/68 67/67/67 66/66/66
f 69/69/69 68/68/68 66/66/66
f 72/72/72 71/71/71 70/70/70
f 73/73/73 72/72/72 70/70/70
g antenna_1_022_1
f 76/76/76 75/75/75 74/74/74
f 77/77/77 76/76/76 74/74/74
f 80/80/80 79/79/79 78/78/78
f 81/81/81 80/80/80 78/78/78
f 84/84/84 83/83/83 82/82/82
f 85/85/85 84/84/84 82/82/82
f 88/88/88 87/87/87 86/86/86
f 89/89/89 88/88/88 86/86/86
f 92/92/92 91/91/91 90/90/90
f 93/93/93 92/92/92 90/90/90
f 96/96/96 95/95/95 94/94/94
f 97/97/97 96/96/96 94/94/94
f 100/100/100 99/99/99 98/98/98
f 101/101/101 100/100/100 98/98/98
f 104/104/104 103/103/103 102/102/102
f 105/105/105 104/104/104 102/102/102
f 108/108/108 107/107/107 106/106/106
f 106/106/106 109/109/109 108/108/108
f 109/109/109 110/110/110 108/108/108
f 109/109/109 111/111/111 110/110/110
f 111/111/111 112/112/112 110/110/110
f 111/111/111 113/113/113 112/112/112
